<?xml version="1.0" encoding="UTF-8"?>
<svg width="59px" height="62px" viewBox="0 0 59 62" version="1.1" xmlns="http://www.w3.org/2000/svg" xmlns:xlink="http://www.w3.org/1999/xlink">
    <title>logo bp taspen</title>
    <g id="web-per-page" stroke="none" stroke-width="1" fill="none" fill-rule="evenodd">
        <g id="home" transform="translate(-171.000000, -13.000000)">
            <g id="logo-bp-taspen" transform="translate(170.000000, 14.000000)">
                <circle id="Oval" cx="30" cy="30" r="30"></circle>
                <g id="Group-25" transform="translate(2.000000, 0.000000)">
                    <path d="M56.9536188,29.3597885 C57.2901213,45.8897885 44.8147888,59.5477212 29.089299,59.86575 C13.3638091,60.1839231 0.343070558,47.0416154 0.00671269036,30.5117596 C-0.329789848,13.9817596 12.1455426,0.323826923 27.8710325,0.00565384615 C43.5965223,-0.312375 56.6172609,12.8299327 56.9536188,29.3597885" id="Fill-1" fill="#314599"></path>
                    <path d="M56.9536188,29.3597885 C57.2901213,45.8897885 44.8147888,59.5477212 29.089299,59.86575 C13.3638091,60.1839231 0.343070558,47.0416154 0.00671269036,30.5117596 C-0.329789848,13.9817596 12.1455426,0.323826923 27.8710325,0.00565384615 C43.5965223,-0.312375 56.6172609,12.8299327 56.9536188,29.3597885 Z" id="Stroke-3" stroke="#EAA932" stroke-width="1.16026106"></path>
                    <path d="M46.2264069,23.3946346 C46.2264069,23.3946346 43.7399627,19.1383846 38.6281911,14.4267981 C33.5165642,9.71535577 28.4801657,5.60622115 28.4801657,5.60622115 C28.4801657,5.60622115 23.4437673,9.71535577 18.3321404,14.4267981 C13.2203688,19.1383846 10.7339246,23.3946346 10.7339246,23.3946346 C10.7339246,23.3946346 3.78976218,33.2985288 10.1552444,44.0676635 C16.5207266,54.8367981 28.4801657,54.259875 28.4801657,54.259875 C28.4801657,54.259875 40.4396048,54.8367981 46.8050871,44.0676635 C53.1705693,33.2985288 46.2264069,23.3946346 46.2264069,23.3946346" id="Fill-5" fill="#EAA932"></path>
                    <path d="M46.2264069,23.3946346 C46.2264069,23.3946346 43.7399627,19.1383846 38.6281911,14.4267981 C33.5165642,9.71535577 28.4801657,5.60622115 28.4801657,5.60622115 C28.4801657,5.60622115 23.4437673,9.71535577 18.3321404,14.4267981 C13.2203688,19.1383846 10.7339246,23.3946346 10.7339246,23.3946346 C10.7339246,23.3946346 3.78976218,33.2985288 10.1552444,44.0676635 C16.5207266,54.8367981 28.4801657,54.259875 28.4801657,54.259875 C28.4801657,54.259875 40.4396048,54.8367981 46.8050871,44.0676635 C53.1705693,33.2985288 46.2264069,23.3946346 46.2264069,23.3946346 Z" id="Stroke-7" stroke="#FFFFFF" stroke-width="1.16026106" stroke-linecap="round"></path>
                    <path d="M43.0702272,28.8848365 C43.0702272,28.8848365 41.0258947,25.3855096 36.8233744,21.5119038 C32.6208541,17.6382981 28.4801079,14.2599808 28.4801079,14.2599808 C28.4801079,14.2599808 24.3395063,17.6382981 20.1368414,21.5119038 C15.9343211,25.3855096 13.8899886,28.8848365 13.8899886,28.8848365 C13.8899886,28.8848365 8.18087437,37.0273846 13.4143135,45.8812788 C18.6477525,54.7353173 28.4801079,54.2609423 28.4801079,54.2609423 C28.4801079,54.2609423 38.3126079,54.7353173 43.546047,45.8812788 C48.779486,37.0273846 43.0702272,28.8848365 43.0702272,28.8848365" id="Fill-9" fill="#EAA932"></path>
                    <path d="M43.0702272,28.8848365 C43.0702272,28.8848365 41.0258947,25.3855096 36.8233744,21.5119038 C32.6208541,17.6382981 28.4801079,14.2599808 28.4801079,14.2599808 C28.4801079,14.2599808 24.3395063,17.6382981 20.1368414,21.5119038 C15.9343211,25.3855096 13.8899886,28.8848365 13.8899886,28.8848365 C13.8899886,28.8848365 8.18087437,37.0273846 13.4143135,45.8812788 C18.6477525,54.7353173 28.4801079,54.2609423 28.4801079,54.2609423 C28.4801079,54.2609423 38.3126079,54.7353173 43.546047,45.8812788 C48.779486,37.0273846 43.0702272,28.8848365 43.0702272,28.8848365 Z" id="Stroke-11" stroke="#FFFFFF" stroke-width="1.16026106" stroke-linecap="round"></path>
                    <path d="M39.6511241,34.8325962 C39.6511241,34.8325962 38.0859388,32.1533654 34.8681876,29.1874038 C31.6504363,26.2215865 28.4801368,23.6349519 28.4801368,23.6349519 C28.4801368,23.6349519 25.3098373,26.2215865 22.092086,29.1874038 C18.8743348,32.1533654 17.3091495,34.8325962 17.3091495,34.8325962 C17.3091495,34.8325962 12.9379439,41.0669712 16.9448703,47.8461058 C20.9519414,54.6252404 28.4801368,54.2620673 28.4801368,54.2620673 C28.4801368,54.2620673 36.0084769,54.6252404 40.015548,47.8461058 C44.0224744,41.0669712 39.6511241,34.8325962 39.6511241,34.8325962" id="Fill-13" fill="#EAA932"></path>
                    <path d="M39.6511241,34.8325962 C39.6511241,34.8325962 38.0859388,32.1533654 34.8681876,29.1874038 C31.6504363,26.2215865 28.4801368,23.6349519 28.4801368,23.6349519 C28.4801368,23.6349519 25.3098373,26.2215865 22.092086,29.1874038 C18.8743348,32.1533654 17.3091495,34.8325962 17.3091495,34.8325962 C17.3091495,34.8325962 12.9379439,41.0669712 16.9448703,47.8461058 C20.9519414,54.6252404 28.4801368,54.2620673 28.4801368,54.2620673 C28.4801368,54.2620673 36.0084769,54.6252404 40.015548,47.8461058 C44.0224744,41.0669712 39.6511241,34.8325962 39.6511241,34.8325962 Z" id="Stroke-15" stroke="#FFFFFF" stroke-width="1.16026106" stroke-linecap="round"></path>
                    <path d="M33.865031,44.8980433 C33.865031,44.8980433 33.110432,43.606601 31.5594244,42.1768413 C30.0084168,40.747226 28.4801223,39.500351 28.4801223,39.500351 C28.4801223,39.500351 26.9519726,40.747226 25.4008203,42.1768413 C23.849668,43.606601 23.0953584,44.8980433 23.0953584,44.8980433 C23.0953584,44.8980433 20.9882391,47.9032356 22.9197289,51.1709279 C24.8512188,54.4387644 28.4801223,54.2638125 28.4801223,54.2638125 C28.4801223,54.2638125 32.1090259,54.4387644 34.0406604,51.1709279 C35.9720056,47.9032356 33.865031,44.8980433 33.865031,44.8980433" id="Fill-17" fill="#EAA932"></path>
                    <path d="M33.865031,44.8980433 C33.865031,44.8980433 33.110432,43.606601 31.5594244,42.1768413 C30.0084168,40.747226 28.4801223,39.500351 28.4801223,39.500351 C28.4801223,39.500351 26.9519726,40.747226 25.4008203,42.1768413 C23.849668,43.606601 23.0953584,44.8980433 23.0953584,44.8980433 C23.0953584,44.8980433 20.9882391,47.9032356 22.9197289,51.1709279 C24.8512188,54.4387644 28.4801223,54.2638125 28.4801223,54.2638125 C28.4801223,54.2638125 32.1090259,54.4387644 34.0406604,51.1709279 C35.9720056,47.9032356 33.865031,44.8980433 33.865031,44.8980433 Z" id="Stroke-19" stroke="#FFFFFF" stroke-width="1.16026106" stroke-linecap="round"></path>
                    <path d="M36.6791817,40.002649 C36.6791817,40.002649 35.5305015,38.0360625 33.1686183,35.8591875 C30.8070244,33.682601 28.4801513,31.7840913 28.4801513,31.7840913 C28.4801513,31.7840913 26.1532782,33.682601 23.7915396,35.8591875 C21.4299457,38.0360625 20.2811208,40.002649 20.2811208,40.002649 C20.2811208,40.002649 17.0727731,44.5783702 20.0137706,49.553899 C22.954768,54.5294279 28.4801513,54.2628894 28.4801513,54.2628894 C28.4801513,54.2628894 34.0056792,54.5294279 36.9466766,49.553899 C39.8875294,44.5783702 36.6791817,40.002649 36.6791817,40.002649" id="Fill-21" fill="#EAA932"></path>
                    <path d="M36.6791817,40.002649 C36.6791817,40.002649 35.5305015,38.0360625 33.1686183,35.8591875 C30.8070244,33.682601 28.4801513,31.7840913 28.4801513,31.7840913 C28.4801513,31.7840913 26.1532782,33.682601 23.7915396,35.8591875 C21.4299457,38.0360625 20.2811208,40.002649 20.2811208,40.002649 C20.2811208,40.002649 17.0727731,44.5783702 20.0137706,49.553899 C22.954768,54.5294279 28.4801513,54.2628894 28.4801513,54.2628894 C28.4801513,54.2628894 34.0056792,54.5294279 36.9466766,49.553899 C39.8875294,44.5783702 36.6791817,40.002649 36.6791817,40.002649 Z" id="Stroke-23" stroke="#FFFFFF" stroke-width="1.16026106" stroke-linecap="round"></path>
                </g>
            </g>
        </g>
    </g>
</svg>